<svg width="60" height="60" viewBox="0 0 60 60" fill="none" xmlns="http://www.w3.org/2000/svg">
<g id="Icon/code">
<path id="Vector" d="M37.4375 11.6459L24.9375 49.1491C24.7187 49.7975 24.0078 50.0866 23.3516 49.9381C22.7031 49.7194 22.3438 49.0084 22.5625 48.3522L35.0625 10.8553C35.2812 10.2001 35.9922 9.84616 36.6484 10.0645C37.2969 10.2828 37.5859 10.9905 37.4375 11.6459ZM18.3281 20.9303L8.13125 30.0006L18.3281 39.0631C18.8438 39.5241 18.8906 40.3131 18.3672 40.8287C17.9766 41.3444 17.1172 41.3912 16.6719 40.9303L5.41961 30.8678C5.15273 30.6959 5.00002 30.36 5 30.0006C4.99998 29.6412 5.15266 29.3053 5.41953 29.0631L16.6719 19.0631C17.1172 18.61 17.9766 18.6569 18.3672 19.1725C18.8906 19.6178 18.8438 20.4772 18.3281 20.9303ZM43.3281 19.0631L54.5781 29.0631C54.8437 29.3053 55 29.6412 55 29.9303C55 30.36 54.8437 30.6959 54.5781 30.8678L43.3281 40.9303C42.8125 41.3912 42.0234 41.3444 41.5625 40.8287C41.1094 40.3131 41.1562 39.5241 41.6719 39.0631L51.8672 29.9303L41.6719 20.9303C41.1562 20.4772 41.1094 19.6178 41.5625 19.1725C42.0234 18.6569 42.8125 18.61 43.3281 19.0631Z" fill="#64748B"/>
</g>
</svg>
