<svg width="60" height="60" viewBox="0 0 60 60" fill="none" xmlns="http://www.w3.org/2000/svg">
<g id="Icon/graphic-design">
<path id="Vector" d="M47.5 35H48.75C50.8203 35 52.5 36.6797 52.5 38.75V43.75C52.5 45.8203 50.8203 47.5 48.75 47.5H43.75C41.6797 47.5 40 45.8203 40 43.75V38.75C40 36.6797 41.6797 35 43.75 35H45C45 28.9453 41.4141 23.7266 36.1797 21.3594C36.1875 23.3828 34.5312 25 32.5 25H27.5C25.3984 25 23.8125 23.3828 23.75 21.3594C18.5859 23.7266 15 28.9453 15 35H16.25C18.3203 35 20 36.6797 20 38.75V43.75C20 45.8203 18.3203 47.5 16.25 47.5H11.25C9.17891 47.5 7.5 45.8203 7.5 43.75V38.75C7.5 36.6797 9.17891 35 11.25 35H12.5C12.5 28.6328 15.8984 23.0625 20.9844 20H14.7734C14.2891 22.1563 12.3297 23.75 10 23.75C7.23828 23.75 5 21.5078 5 18.75C5 15.9883 7.23828 13.75 10 13.75C12.3297 13.75 14.2891 15.3437 14.7734 17.5H23.75V16.25C23.75 14.1789 25.4297 12.5 27.5 12.5H32.5C34.5703 12.5 36.25 14.1789 36.25 16.25V17.5H45.1562C45.7109 15.3437 47.6719 13.75 50 13.75C52.7578 13.75 55 15.9883 55 18.75C55 21.5078 52.7578 23.75 50 23.75C47.6719 23.75 45.7109 22.1563 45.1562 20H39.0156C44.1016 23.0625 47.5 28.6328 47.5 35ZM32.5 15H27.5C26.8125 15 26.25 15.5594 26.25 16.25V21.25C26.25 21.9375 26.8125 22.5 27.5 22.5H32.5C33.1875 22.5 33.75 21.9375 33.75 21.25V16.25C33.75 15.5594 33.1875 15 32.5 15ZM43.75 37.5C43.0625 37.5 42.5 38.0625 42.5 38.75V43.75C42.5 44.4375 43.0625 45 43.75 45H48.75C49.4375 45 50 44.4375 50 43.75V38.75C50 38.0625 49.4375 37.5 48.75 37.5H43.75ZM11.25 37.5C10.5594 37.5 10 38.0625 10 38.75V43.75C10 44.4375 10.5594 45 11.25 45H16.25C16.9375 45 17.5 44.4375 17.5 43.75V38.75C17.5 38.0625 16.9375 37.5 16.25 37.5H11.25ZM10 16.25C8.61953 16.25 7.5 17.3695 7.5 18.75C7.5 20.1328 8.61953 21.25 10 21.25C11.3805 21.25 12.5 20.1328 12.5 18.75C12.5 17.3695 11.3805 16.25 10 16.25ZM50 16.25C48.6172 16.25 47.5 17.3695 47.5 18.75C47.5 20.1328 48.6172 21.25 50 21.25C51.3828 21.25 52.5 20.1328 52.5 18.75C52.5 17.3695 51.3828 16.25 50 16.25Z" fill="#702FFF"/>
</g>
</svg>
