<svg width="60" height="60" viewBox="0 0 60 60" fill="none" xmlns="http://www.w3.org/2000/svg">
<g id="Icon/marketing">
<path id="Vector" d="M41.9238 6.42762C44.4336 3.86404 48.75 5.58279 48.75 9.11414V47.3534C48.75 50.8788 44.4336 52.5975 41.9238 50.0389L39.6777 47.578C35.4492 43.1151 29.8145 40.2733 23.75 39.5018V49.3261C23.75 52.3436 21.2988 54.7948 18.2812 54.7948H16.7188C13.6982 54.7948 11.25 52.3436 11.25 49.3261V39.1698C7.79785 39.1698 5 36.3671 5 32.8319V23.4569C5 20.0975 7.79785 17.2069 11.25 17.2069H19.0234L21.875 17.1386C28.6426 16.7577 35.0195 13.8065 39.6777 8.8827L41.9238 6.42762ZM45.625 9.11414C45.625 8.32019 44.7656 8.06434 44.2773 8.57703L41.9531 11.0321C37.8613 15.3417 32.6074 18.3104 26.875 19.5897V36.8749C32.6074 38.1542 37.8613 41.035 41.9531 45.4296L44.2773 47.8905C44.7656 48.3983 45.625 48.0565 45.625 47.3534V9.11414ZM23.75 36.3475V20.1171C23.1836 20.1757 22.6172 20.2245 22.041 20.2538L19.1016 20.3319H11.25C9.52441 20.3319 8.125 21.8163 8.125 23.4569V32.8319C8.125 34.6483 9.52441 35.9569 11.25 35.9569H19.1016L22.041 36.2108C22.6172 36.1522 23.1836 36.2889 23.75 36.3475ZM14.375 39.1698V49.3261C14.375 50.6249 15.4199 51.6698 16.7188 51.6698H18.2812C19.5801 51.6698 20.625 50.6249 20.625 49.3261V39.2577L19.0234 39.1698H14.375ZM53.4375 23.4569C54.2969 23.4569 55 24.2479 55 25.0194V31.2694C55 32.2167 54.2969 32.8319 53.4375 32.8319C52.5781 32.8319 51.875 32.2167 51.875 31.2694V25.0194C51.875 24.2479 52.5781 23.4569 53.4375 23.4569Z" fill="#64748B"/>
</g>
</svg>
