<svg width="60" height="60" viewBox="0 0 60 60" fill="none" xmlns="http://www.w3.org/2000/svg">
<g id="Icon/seo">
<path id="Vector" d="M17.4994 26.8739C17.4994 26.0146 18.2025 25.3115 19.0618 25.3115C19.9211 25.3115 20.6242 26.0146 20.6242 26.8739V33.1236C20.6242 33.983 19.9211 34.6861 19.0618 34.6861C18.2025 34.6861 17.4994 33.983 17.4994 33.1236V26.8739ZM23.7491 17.4994C23.7491 16.6401 24.4522 15.937 25.3115 15.937C26.1708 15.937 26.8739 16.6401 26.8739 17.4994V33.1236C26.8739 33.983 26.1708 34.6861 25.3115 34.6861C24.4522 34.6861 23.7491 33.983 23.7491 33.1236V17.4994ZM29.9988 23.7491C29.9988 22.8898 30.7019 22.1867 31.5612 22.1867C32.4205 22.1867 33.1236 22.8898 33.1236 23.7491V33.1236C33.1236 33.983 32.4205 34.6861 31.5612 34.6861C30.7019 34.6861 29.9988 33.983 29.9988 33.1236V23.7491ZM5 25.3115C5 14.0933 14.0933 5 25.3115 5C36.5317 5 45.623 14.0933 45.623 25.3115C45.623 30.3601 43.7872 34.8911 40.6526 38.5238L54.5386 52.3317C55.1538 52.9371 55.1538 53.9332 54.5386 54.5386C53.9332 55.1538 52.9371 55.1538 52.3317 54.5386L38.5238 40.6526C34.8911 43.7872 30.3601 45.623 25.3115 45.623C14.0933 45.623 5 36.5317 5 25.3115ZM25.3115 42.4982C34.8032 42.4982 42.4982 34.8032 42.4982 25.3115C42.4982 15.8198 34.8032 8.12485 25.3115 8.12485C15.8198 8.12485 8.12485 15.8198 8.12485 25.3115C8.12485 34.8032 15.8198 42.4982 25.3115 42.4982Z" fill="#64748B"/>
</g>
</svg>
