<svg width="60" height="60" viewBox="0 0 60 60" fill="none" xmlns="http://www.w3.org/2000/svg">
<g id="Icon/ui-ux-design">
<path id="Vector" d="M30.0022 42.5C30.0022 47.8737 25.6528 52.2231 20.2791 52.2231H7.77802C6.24403 52.2231 5 50.9816 5 49.4451C5 47.9085 6.24403 46.667 7.77802 46.667H8.19559C9.7261 46.667 10.7644 45.0263 10.6073 43.507C10.5734 43.1771 10.556 42.8386 10.556 42.5C10.556 37.1263 14.9054 32.7769 20.2791 32.7769C20.8608 32.7769 21.4337 32.829 21.9893 32.9245L45.5157 9.40252C47.686 7.23236 51.2019 7.23236 53.3723 9.40252C55.5426 11.572 55.5426 15.0896 53.3723 17.2634L29.8546 40.7811C29.9501 41.3367 30.0022 41.9097 30.0022 42.5ZM51.4016 15.2954C52.4868 14.2102 52.4868 12.4514 51.4016 11.3662C50.3164 10.2819 48.5628 10.2819 47.4776 11.3662L33.1795 25.6583L37.1122 29.5909L51.4016 15.2954ZM35.1502 31.5529L31.2176 27.6202L24.4982 34.3396L28.4309 38.2722L35.1502 31.5529ZM13.3341 42.5C13.3341 42.7431 13.3462 42.9862 13.3714 43.2206C13.5207 44.6703 13.1101 46.1375 12.2888 47.2834C11.4511 48.4467 10.0352 49.4451 8.19559 49.4451H20.2791C24.1162 49.4451 27.2242 46.3371 27.2242 42.5C27.2242 41.901 27.146 41.328 27.0071 40.7724L22.0067 35.772C21.4511 35.6331 20.8781 35.555 20.2791 35.555C16.442 35.555 13.3341 38.6629 13.3341 42.5ZM19.8277 9.24799L30.7054 20.2064L28.8215 22.1684L24.585 17.9319L17.9352 24.5818L22.1716 28.8183L20.9649 30.0163C20.7392 30.0076 20.5135 29.9208 20.2791 29.9208C20.0013 29.9208 19.7235 30.0076 19.4544 30.025L9.25124 19.8244C7.35263 17.9232 7.35263 14.8474 9.25124 12.9488L12.9521 9.24799C14.8533 7.34947 17.9265 7.34947 19.8277 9.24799ZM11.2158 14.9134C10.4024 15.7269 10.4024 17.0464 11.2158 17.8625L15.9732 22.5417L22.5449 15.9699L17.8657 11.2126C17.0497 10.3991 15.7301 10.3991 14.9141 11.2126L11.2158 14.9134ZM40.602 33.9576L42.5727 31.9869L46.9828 36.397C47.9638 37.3867 48.6843 38.6021 49.0837 39.939L52.1742 50.4434C52.3131 50.9296 52.1829 51.4591 51.8183 51.815C51.4624 52.1797 50.9328 52.3099 50.4467 52.171L39.9423 49.0804C38.6053 48.6811 37.39 47.9606 36.4003 46.9796L32.7541 43.3247C32.7715 43.0556 32.7802 42.7778 32.7802 42.5C32.7802 42.2656 32.7715 42.0312 32.7628 41.7968L33.9608 40.5988L38.371 45.0089C39.0221 45.6687 39.8381 46.1548 40.7323 46.4153L48.7885 48.7853L46.4185 40.729C46.1581 39.8348 45.6719 39.0188 45.0122 38.3677L40.602 33.9576Z" fill="#64748B"/>
</g>
</svg>
